<mxfile host="app.diagrams.net" agent="Mozilla/5.0 (Macintosh; Intel Mac OS X 10_15_7) AppleWebKit/537.36 (KHTML, like Gecko) Chrome/136.0.0.0 Safari/537.36" version="27.0.3">
  <diagram name="Страница — 1" id="4BSEIJOiNZzdxAaiekru">
    <mxGraphModel dx="2466" dy="1184" grid="0" gridSize="10" guides="1" tooltips="1" connect="1" arrows="1" fold="1" page="0" pageScale="1" pageWidth="827" pageHeight="1169" math="0" shadow="0">
      <root>
        <mxCell id="0" />
        <mxCell id="1" parent="0" />
        <mxCell id="DlXvclVBbWHIwgCCuiGe-151" value="Заказ" style="swimlane;fontStyle=1;childLayout=stackLayout;horizontal=1;startSize=26;horizontalStack=0;resizeParent=1;resizeParentMax=0;resizeLast=0;collapsible=1;marginBottom=0;align=center;fontSize=14;" parent="1" vertex="1">
          <mxGeometry x="115" y="143" width="160" height="194" as="geometry" />
        </mxCell>
        <mxCell id="DlXvclVBbWHIwgCCuiGe-152" value="&lt;div&gt;ID заказа&lt;br&gt;&lt;/div&gt;&lt;div&gt;&lt;br&gt;ID заказчика (FK)&lt;br&gt;&lt;br&gt;ID тестировщика (FK)&lt;/div&gt;" style="text;strokeColor=default;fillColor=none;spacingLeft=4;spacingRight=4;overflow=hidden;rotatable=0;points=[[0,0.5],[1,0.5]];portConstraint=eastwest;fontSize=12;whiteSpace=wrap;html=1;fontStyle=0;align=left;" parent="DlXvclVBbWHIwgCCuiGe-151" vertex="1">
          <mxGeometry y="26" width="160" height="90" as="geometry" />
        </mxCell>
        <mxCell id="DlXvclVBbWHIwgCCuiGe-155" value="Статус" style="text;html=1;align=left;verticalAlign=middle;resizable=0;points=[];autosize=1;strokeColor=none;fillColor=none;spacingLeft=4;" parent="DlXvclVBbWHIwgCCuiGe-151" vertex="1">
          <mxGeometry y="116" width="160" height="26" as="geometry" />
        </mxCell>
        <mxCell id="DlXvclVBbWHIwgCCuiGe-245" value="Дата создания" style="text;html=1;align=left;verticalAlign=middle;resizable=0;points=[];autosize=1;strokeColor=none;fillColor=none;spacingLeft=4;" parent="DlXvclVBbWHIwgCCuiGe-151" vertex="1">
          <mxGeometry y="142" width="160" height="26" as="geometry" />
        </mxCell>
        <mxCell id="snzVxrBjVpSpZApHVLwd-16" value="Нужно сопровождение" style="text;html=1;align=left;verticalAlign=middle;resizable=0;points=[];autosize=1;strokeColor=none;fillColor=none;spacingLeft=4;" parent="DlXvclVBbWHIwgCCuiGe-151" vertex="1">
          <mxGeometry y="168" width="160" height="26" as="geometry" />
        </mxCell>
        <mxCell id="DlXvclVBbWHIwgCCuiGe-161" value="P" style="text;html=1;align=center;verticalAlign=middle;resizable=0;points=[];autosize=1;strokeColor=none;fillColor=none;" parent="1" vertex="1">
          <mxGeometry x="89" y="215" width="26" height="26" as="geometry" />
        </mxCell>
        <mxCell id="DlXvclVBbWHIwgCCuiGe-169" value="Заказчик" style="swimlane;fontStyle=1;childLayout=stackLayout;horizontal=1;startSize=26;horizontalStack=0;resizeParent=1;resizeParentMax=0;resizeLast=0;collapsible=1;marginBottom=0;align=center;fontSize=14;" parent="1" vertex="1">
          <mxGeometry x="-121" y="141" width="160" height="146" as="geometry" />
        </mxCell>
        <mxCell id="DlXvclVBbWHIwgCCuiGe-170" value="ID заказчика" style="text;strokeColor=default;fillColor=none;spacingLeft=4;spacingRight=4;overflow=hidden;rotatable=0;points=[[0,0.5],[1,0.5]];portConstraint=eastwest;fontSize=12;whiteSpace=wrap;html=1;" parent="DlXvclVBbWHIwgCCuiGe-169" vertex="1">
          <mxGeometry y="26" width="160" height="30" as="geometry" />
        </mxCell>
        <mxCell id="DlXvclVBbWHIwgCCuiGe-171" value="ФИО" style="text;strokeColor=none;fillColor=none;spacingLeft=4;spacingRight=4;overflow=hidden;rotatable=0;points=[[0,0.5],[1,0.5]];portConstraint=eastwest;fontSize=12;whiteSpace=wrap;html=1;" parent="DlXvclVBbWHIwgCCuiGe-169" vertex="1">
          <mxGeometry y="56" width="160" height="30" as="geometry" />
        </mxCell>
        <mxCell id="DlXvclVBbWHIwgCCuiGe-198" value="Номер телефона" style="text;strokeColor=none;fillColor=none;spacingLeft=4;spacingRight=4;overflow=hidden;rotatable=0;points=[[0,0.5],[1,0.5]];portConstraint=eastwest;fontSize=12;whiteSpace=wrap;html=1;" parent="DlXvclVBbWHIwgCCuiGe-169" vertex="1">
          <mxGeometry y="86" width="160" height="30" as="geometry" />
        </mxCell>
        <mxCell id="snzVxrBjVpSpZApHVLwd-10" value="Логин Telegram" style="text;strokeColor=none;fillColor=none;spacingLeft=4;spacingRight=4;overflow=hidden;rotatable=0;points=[[0,0.5],[1,0.5]];portConstraint=eastwest;fontSize=12;whiteSpace=wrap;html=1;" parent="DlXvclVBbWHIwgCCuiGe-169" vertex="1">
          <mxGeometry y="116" width="160" height="30" as="geometry" />
        </mxCell>
        <mxCell id="DlXvclVBbWHIwgCCuiGe-173" style="edgeStyle=orthogonalEdgeStyle;rounded=0;orthogonalLoop=1;jettySize=auto;html=1;endArrow=diamond;endFill=0;startArrow=oval;startFill=1;" parent="1" source="DlXvclVBbWHIwgCCuiGe-152" target="DlXvclVBbWHIwgCCuiGe-169" edge="1">
          <mxGeometry relative="1" as="geometry" />
        </mxCell>
        <mxCell id="DlXvclVBbWHIwgCCuiGe-174" value="Команда &#xa;разработчиков" style="swimlane;fontStyle=1;childLayout=stackLayout;horizontal=1;startSize=39;horizontalStack=0;resizeParent=1;resizeParentMax=0;resizeLast=0;collapsible=1;marginBottom=0;align=center;fontSize=14;" parent="1" vertex="1">
          <mxGeometry x="115" y="388.01" width="160" height="159" as="geometry" />
        </mxCell>
        <mxCell id="DlXvclVBbWHIwgCCuiGe-175" value="ID Разработчика" style="text;strokeColor=default;fillColor=none;spacingLeft=4;spacingRight=4;overflow=hidden;rotatable=0;points=[[0,0.5],[1,0.5]];portConstraint=eastwest;fontSize=12;whiteSpace=wrap;html=1;" parent="DlXvclVBbWHIwgCCuiGe-174" vertex="1">
          <mxGeometry y="39" width="160" height="30" as="geometry" />
        </mxCell>
        <mxCell id="DlXvclVBbWHIwgCCuiGe-176" value="Занятость" style="text;strokeColor=none;fillColor=none;spacingLeft=4;spacingRight=4;overflow=hidden;rotatable=0;points=[[0,0.5],[1,0.5]];portConstraint=eastwest;fontSize=12;whiteSpace=wrap;html=1;" parent="DlXvclVBbWHIwgCCuiGe-174" vertex="1">
          <mxGeometry y="69" width="160" height="30" as="geometry" />
        </mxCell>
        <mxCell id="DlXvclVBbWHIwgCCuiGe-177" value="Логин Телеграм" style="text;strokeColor=none;fillColor=none;spacingLeft=4;spacingRight=4;overflow=hidden;rotatable=0;points=[[0,0.5],[1,0.5]];portConstraint=eastwest;fontSize=12;whiteSpace=wrap;html=1;" parent="DlXvclVBbWHIwgCCuiGe-174" vertex="1">
          <mxGeometry y="99" width="160" height="30" as="geometry" />
        </mxCell>
        <mxCell id="DlXvclVBbWHIwgCCuiGe-179" value="ФИО" style="text;strokeColor=none;fillColor=none;spacingLeft=4;spacingRight=4;overflow=hidden;rotatable=0;points=[[0,0.5],[1,0.5]];portConstraint=eastwest;fontSize=12;whiteSpace=wrap;html=1;" parent="DlXvclVBbWHIwgCCuiGe-174" vertex="1">
          <mxGeometry y="129" width="160" height="30" as="geometry" />
        </mxCell>
        <mxCell id="snzVxrBjVpSpZApHVLwd-2" value="Менеджер" style="swimlane;fontStyle=1;childLayout=stackLayout;horizontal=1;startSize=26;horizontalStack=0;resizeParent=1;resizeParentMax=0;resizeLast=0;collapsible=1;marginBottom=0;align=center;fontSize=14;" parent="1" vertex="1">
          <mxGeometry x="366" y="148" width="161" height="146" as="geometry" />
        </mxCell>
        <mxCell id="snzVxrBjVpSpZApHVLwd-3" value="ID Менеджера" style="text;strokeColor=default;fillColor=none;spacingLeft=4;spacingRight=4;overflow=hidden;rotatable=0;points=[[0,0.5],[1,0.5]];portConstraint=eastwest;fontSize=12;whiteSpace=wrap;html=1;" parent="snzVxrBjVpSpZApHVLwd-2" vertex="1">
          <mxGeometry y="26" width="161" height="30" as="geometry" />
        </mxCell>
        <mxCell id="snzVxrBjVpSpZApHVLwd-4" value="ФИО" style="text;strokeColor=none;fillColor=none;spacingLeft=4;spacingRight=4;overflow=hidden;rotatable=0;points=[[0,0.5],[1,0.5]];portConstraint=eastwest;fontSize=12;whiteSpace=wrap;html=1;" parent="snzVxrBjVpSpZApHVLwd-2" vertex="1">
          <mxGeometry y="56" width="161" height="30" as="geometry" />
        </mxCell>
        <mxCell id="snzVxrBjVpSpZApHVLwd-5" value="Доступность" style="text;strokeColor=none;fillColor=none;spacingLeft=4;spacingRight=4;overflow=hidden;rotatable=0;points=[[0,0.5],[1,0.5]];portConstraint=eastwest;fontSize=12;whiteSpace=wrap;html=1;" parent="snzVxrBjVpSpZApHVLwd-2" vertex="1">
          <mxGeometry y="86" width="161" height="30" as="geometry" />
        </mxCell>
        <mxCell id="snzVxrBjVpSpZApHVLwd-6" value="Логин Telegram" style="text;strokeColor=none;fillColor=none;spacingLeft=4;spacingRight=4;overflow=hidden;rotatable=0;points=[[0,0.5],[1,0.5]];portConstraint=eastwest;fontSize=12;whiteSpace=wrap;html=1;" parent="snzVxrBjVpSpZApHVLwd-2" vertex="1">
          <mxGeometry y="116" width="161" height="30" as="geometry" />
        </mxCell>
        <mxCell id="snzVxrBjVpSpZApHVLwd-8" style="edgeStyle=orthogonalEdgeStyle;rounded=0;orthogonalLoop=1;jettySize=auto;html=1;endArrow=diamond;endFill=0;startArrow=oval;startFill=1;exitX=0.495;exitY=1.026;exitDx=0;exitDy=0;exitPerimeter=0;entryX=0.5;entryY=0;entryDx=0;entryDy=0;dashed=1;dashPattern=8 8;" parent="1" source="snzVxrBjVpSpZApHVLwd-16" target="DlXvclVBbWHIwgCCuiGe-174" edge="1">
          <mxGeometry relative="1" as="geometry">
            <mxPoint x="195" y="336.99800000000005" as="sourcePoint" />
            <mxPoint x="395" y="407.01" as="targetPoint" />
          </mxGeometry>
        </mxCell>
        <mxCell id="snzVxrBjVpSpZApHVLwd-18" value="Product" style="swimlane;fontStyle=1;childLayout=stackLayout;horizontal=1;startSize=26;horizontalStack=0;resizeParent=1;resizeParentMax=0;resizeLast=0;collapsible=1;marginBottom=0;align=center;fontSize=14;" parent="1" vertex="1">
          <mxGeometry x="115" y="795" width="177" height="165" as="geometry" />
        </mxCell>
        <mxCell id="snzVxrBjVpSpZApHVLwd-19" value="&lt;div&gt;ID_Product:&amp;nbsp;&lt;span style=&quot;background-color: initial;&quot;&gt;INTEGER&lt;/span&gt;&lt;br&gt;&lt;/div&gt;&lt;div&gt;&lt;br&gt;ID_ProductType:&amp;nbsp;&lt;span style=&quot;background-color: initial;&quot;&gt;INTEGER&lt;/span&gt;&lt;span style=&quot;background-color: initial;&quot;&gt;&amp;nbsp;(FK)&lt;/span&gt;&lt;/div&gt;&lt;div&gt;&lt;br&gt;&lt;/div&gt;" style="text;strokeColor=default;fillColor=none;spacingLeft=4;spacingRight=4;overflow=hidden;rotatable=0;points=[[0,0.5],[1,0.5]];portConstraint=eastwest;fontSize=12;whiteSpace=wrap;html=1;fontStyle=0;align=left;" parent="snzVxrBjVpSpZApHVLwd-18" vertex="1">
          <mxGeometry y="26" width="177" height="61" as="geometry" />
        </mxCell>
        <mxCell id="snzVxrBjVpSpZApHVLwd-20" value="Price: FLOAT" style="text;html=1;align=left;verticalAlign=middle;resizable=0;points=[];autosize=1;strokeColor=none;fillColor=none;spacingLeft=4;" parent="snzVxrBjVpSpZApHVLwd-18" vertex="1">
          <mxGeometry y="87" width="177" height="26" as="geometry" />
        </mxCell>
        <mxCell id="snzVxrBjVpSpZApHVLwd-21" value="Name: VARCHAR(100)" style="text;html=1;align=left;verticalAlign=middle;resizable=0;points=[];autosize=1;strokeColor=none;fillColor=none;spacingLeft=4;" parent="snzVxrBjVpSpZApHVLwd-18" vertex="1">
          <mxGeometry y="113" width="177" height="26" as="geometry" />
        </mxCell>
        <mxCell id="snzVxrBjVpSpZApHVLwd-22" value="IMAGE:&amp;nbsp;&lt;span style=&quot;text-wrap-mode: wrap;&quot;&gt;VARCHAR(500)&lt;/span&gt;" style="text;html=1;align=left;verticalAlign=middle;resizable=0;points=[];autosize=1;strokeColor=none;fillColor=none;spacingLeft=4;" parent="snzVxrBjVpSpZApHVLwd-18" vertex="1">
          <mxGeometry y="139" width="177" height="26" as="geometry" />
        </mxCell>
        <mxCell id="snzVxrBjVpSpZApHVLwd-24" value="ProductType" style="swimlane;fontStyle=1;childLayout=stackLayout;horizontal=1;startSize=26;horizontalStack=0;resizeParent=1;resizeParentMax=0;resizeLast=0;collapsible=1;marginBottom=0;align=center;fontSize=14;" parent="1" vertex="1">
          <mxGeometry x="-124" y="809" width="182" height="86" as="geometry" />
        </mxCell>
        <mxCell id="snzVxrBjVpSpZApHVLwd-25" value="ID_Performer: INTEGER" style="text;strokeColor=default;fillColor=none;spacingLeft=4;spacingRight=4;overflow=hidden;rotatable=0;points=[[0,0.5],[1,0.5]];portConstraint=eastwest;fontSize=12;whiteSpace=wrap;html=1;" parent="snzVxrBjVpSpZApHVLwd-24" vertex="1">
          <mxGeometry y="26" width="182" height="30" as="geometry" />
        </mxCell>
        <mxCell id="snzVxrBjVpSpZApHVLwd-26" value="Name: VARCHAR(100)" style="text;strokeColor=none;fillColor=none;spacingLeft=4;spacingRight=4;overflow=hidden;rotatable=0;points=[[0,0.5],[1,0.5]];portConstraint=eastwest;fontSize=12;whiteSpace=wrap;html=1;" parent="snzVxrBjVpSpZApHVLwd-24" vertex="1">
          <mxGeometry y="56" width="182" height="30" as="geometry" />
        </mxCell>
        <mxCell id="snzVxrBjVpSpZApHVLwd-30" style="edgeStyle=orthogonalEdgeStyle;rounded=0;orthogonalLoop=1;jettySize=auto;html=1;endArrow=diamond;endFill=0;startArrow=oval;startFill=1;" parent="1" source="snzVxrBjVpSpZApHVLwd-19" target="snzVxrBjVpSpZApHVLwd-24" edge="1">
          <mxGeometry relative="1" as="geometry" />
        </mxCell>
        <mxCell id="sOd8CQ3x8LuXbYGcu_UM-1" style="edgeStyle=orthogonalEdgeStyle;rounded=0;orthogonalLoop=1;jettySize=auto;html=1;endArrow=oval;endFill=1;startArrow=oval;startFill=1;exitX=1.013;exitY=0.889;exitDx=0;exitDy=0;exitPerimeter=0;entryX=0;entryY=0.5;entryDx=0;entryDy=0;" parent="1" source="DlXvclVBbWHIwgCCuiGe-152" target="snzVxrBjVpSpZApHVLwd-5" edge="1">
          <mxGeometry relative="1" as="geometry">
            <mxPoint x="372" y="225" as="sourcePoint" />
            <mxPoint x="296" y="225" as="targetPoint" />
          </mxGeometry>
        </mxCell>
        <mxCell id="sOd8CQ3x8LuXbYGcu_UM-3" value="Инструменты &#xa;разработки" style="swimlane;fontStyle=1;childLayout=stackLayout;horizontal=1;startSize=49;horizontalStack=0;resizeParent=1;resizeParentMax=0;resizeLast=0;collapsible=1;marginBottom=0;align=center;fontSize=14;" parent="1" vertex="1">
          <mxGeometry x="366" y="359" width="161" height="182" as="geometry" />
        </mxCell>
        <mxCell id="sOd8CQ3x8LuXbYGcu_UM-4" value="ID Инструмента разработки" style="text;strokeColor=default;fillColor=none;spacingLeft=4;spacingRight=4;overflow=hidden;rotatable=0;points=[[0,0.5],[1,0.5]];portConstraint=eastwest;fontSize=12;whiteSpace=wrap;html=1;" parent="sOd8CQ3x8LuXbYGcu_UM-3" vertex="1">
          <mxGeometry y="49" width="161" height="43" as="geometry" />
        </mxCell>
        <mxCell id="sOd8CQ3x8LuXbYGcu_UM-5" value="Наименование" style="text;strokeColor=none;fillColor=none;spacingLeft=4;spacingRight=4;overflow=hidden;rotatable=0;points=[[0,0.5],[1,0.5]];portConstraint=eastwest;fontSize=12;whiteSpace=wrap;html=1;" parent="sOd8CQ3x8LuXbYGcu_UM-3" vertex="1">
          <mxGeometry y="92" width="161" height="30" as="geometry" />
        </mxCell>
        <mxCell id="sOd8CQ3x8LuXbYGcu_UM-6" value="Описание" style="text;strokeColor=none;fillColor=none;spacingLeft=4;spacingRight=4;overflow=hidden;rotatable=0;points=[[0,0.5],[1,0.5]];portConstraint=eastwest;fontSize=12;whiteSpace=wrap;html=1;" parent="sOd8CQ3x8LuXbYGcu_UM-3" vertex="1">
          <mxGeometry y="122" width="161" height="30" as="geometry" />
        </mxCell>
        <mxCell id="sOd8CQ3x8LuXbYGcu_UM-7" value="Логин Telegram" style="text;strokeColor=none;fillColor=none;spacingLeft=4;spacingRight=4;overflow=hidden;rotatable=0;points=[[0,0.5],[1,0.5]];portConstraint=eastwest;fontSize=12;whiteSpace=wrap;html=1;" parent="sOd8CQ3x8LuXbYGcu_UM-3" vertex="1">
          <mxGeometry y="152" width="161" height="30" as="geometry" />
        </mxCell>
        <mxCell id="sOd8CQ3x8LuXbYGcu_UM-8" style="edgeStyle=orthogonalEdgeStyle;rounded=0;orthogonalLoop=1;jettySize=auto;html=1;endArrow=oval;endFill=1;startArrow=oval;startFill=1;exitX=1.013;exitY=0.889;exitDx=0;exitDy=0;exitPerimeter=0;entryX=0;entryY=0.5;entryDx=0;entryDy=0;" parent="1" target="sOd8CQ3x8LuXbYGcu_UM-6" edge="1">
          <mxGeometry relative="1" as="geometry">
            <mxPoint x="277" y="495.51" as="sourcePoint" />
            <mxPoint x="296" y="471.51" as="targetPoint" />
          </mxGeometry>
        </mxCell>
        <mxCell id="sOd8CQ3x8LuXbYGcu_UM-11" value="Тестировщик" style="swimlane;fontStyle=1;childLayout=stackLayout;horizontal=1;startSize=26;horizontalStack=0;resizeParent=1;resizeParentMax=0;resizeLast=0;collapsible=1;marginBottom=0;align=center;fontSize=14;" parent="1" vertex="1">
          <mxGeometry x="-122" y="409" width="160" height="146" as="geometry" />
        </mxCell>
        <mxCell id="sOd8CQ3x8LuXbYGcu_UM-12" value="ID тестировщика" style="text;strokeColor=default;fillColor=none;spacingLeft=4;spacingRight=4;overflow=hidden;rotatable=0;points=[[0,0.5],[1,0.5]];portConstraint=eastwest;fontSize=12;whiteSpace=wrap;html=1;" parent="sOd8CQ3x8LuXbYGcu_UM-11" vertex="1">
          <mxGeometry y="26" width="160" height="30" as="geometry" />
        </mxCell>
        <mxCell id="sOd8CQ3x8LuXbYGcu_UM-13" value="ФИО" style="text;strokeColor=none;fillColor=none;spacingLeft=4;spacingRight=4;overflow=hidden;rotatable=0;points=[[0,0.5],[1,0.5]];portConstraint=eastwest;fontSize=12;whiteSpace=wrap;html=1;" parent="sOd8CQ3x8LuXbYGcu_UM-11" vertex="1">
          <mxGeometry y="56" width="160" height="30" as="geometry" />
        </mxCell>
        <mxCell id="sOd8CQ3x8LuXbYGcu_UM-14" value="Номер телефона" style="text;strokeColor=none;fillColor=none;spacingLeft=4;spacingRight=4;overflow=hidden;rotatable=0;points=[[0,0.5],[1,0.5]];portConstraint=eastwest;fontSize=12;whiteSpace=wrap;html=1;" parent="sOd8CQ3x8LuXbYGcu_UM-11" vertex="1">
          <mxGeometry y="86" width="160" height="30" as="geometry" />
        </mxCell>
        <mxCell id="sOd8CQ3x8LuXbYGcu_UM-15" value="Логин Telegram" style="text;strokeColor=none;fillColor=none;spacingLeft=4;spacingRight=4;overflow=hidden;rotatable=0;points=[[0,0.5],[1,0.5]];portConstraint=eastwest;fontSize=12;whiteSpace=wrap;html=1;" parent="sOd8CQ3x8LuXbYGcu_UM-11" vertex="1">
          <mxGeometry y="116" width="160" height="30" as="geometry" />
        </mxCell>
        <mxCell id="sOd8CQ3x8LuXbYGcu_UM-16" style="edgeStyle=orthogonalEdgeStyle;rounded=0;orthogonalLoop=1;jettySize=auto;html=1;endArrow=oval;endFill=1;startArrow=oval;startFill=1;exitX=-0.025;exitY=0.538;exitDx=0;exitDy=0;exitPerimeter=0;" parent="1" source="snzVxrBjVpSpZApHVLwd-16" target="sOd8CQ3x8LuXbYGcu_UM-11" edge="1">
          <mxGeometry relative="1" as="geometry">
            <mxPoint x="114" y="482" as="sourcePoint" />
          </mxGeometry>
        </mxCell>
        <mxCell id="7tFGQJg8lZiFd_mPnd3y-32" value="P" style="text;html=1;align=center;verticalAlign=middle;resizable=0;points=[];autosize=1;strokeColor=none;fillColor=none;" parent="1" vertex="1">
          <mxGeometry x="89" y="828" width="26" height="26" as="geometry" />
        </mxCell>
        <mxCell id="iJVvecHlCoVzFm1U_8LE-1" style="edgeStyle=orthogonalEdgeStyle;rounded=0;orthogonalLoop=1;jettySize=auto;html=1;endArrow=oval;endFill=1;startArrow=diamond;startFill=0;entryX=1;entryY=0.5;entryDx=0;entryDy=0;exitX=0.006;exitY=0.855;exitDx=0;exitDy=0;exitPerimeter=0;" edge="1" parent="1" source="iJVvecHlCoVzFm1U_8LE-6" target="iJVvecHlCoVzFm1U_8LE-3">
          <mxGeometry relative="1" as="geometry">
            <mxPoint x="589" y="1020" as="sourcePoint" />
            <mxPoint x="518" y="1020" as="targetPoint" />
          </mxGeometry>
        </mxCell>
        <mxCell id="iJVvecHlCoVzFm1U_8LE-2" value="OrderProducct" style="swimlane;fontStyle=1;childLayout=stackLayout;horizontal=1;startSize=26;horizontalStack=0;resizeParent=1;resizeParentMax=0;resizeLast=0;collapsible=1;marginBottom=0;align=center;fontSize=14;" vertex="1" parent="1">
          <mxGeometry x="383" y="809.5" width="173" height="111" as="geometry" />
        </mxCell>
        <mxCell id="iJVvecHlCoVzFm1U_8LE-3" value="ID_Order: INTEGER (PK)&lt;div&gt;&lt;br&gt;&lt;/div&gt;&lt;div&gt;ID_Product:&amp;nbsp;&lt;span style=&quot;background-color: initial;&quot;&gt;INTEGER&lt;/span&gt;&lt;span style=&quot;background-color: initial;&quot;&gt;&amp;nbsp;(PK)&lt;/span&gt;&lt;/div&gt;" style="text;strokeColor=default;fillColor=none;spacingLeft=4;spacingRight=4;overflow=hidden;rotatable=0;points=[[0,0.5],[1,0.5]];portConstraint=eastwest;fontSize=12;whiteSpace=wrap;html=1;" vertex="1" parent="iJVvecHlCoVzFm1U_8LE-2">
          <mxGeometry y="26" width="173" height="55" as="geometry" />
        </mxCell>
        <mxCell id="iJVvecHlCoVzFm1U_8LE-4" value="Quantity: INTEGER&lt;div&gt;&lt;br&gt;&lt;/div&gt;" style="text;strokeColor=none;fillColor=none;spacingLeft=4;spacingRight=4;overflow=hidden;rotatable=0;points=[[0,0.5],[1,0.5]];portConstraint=eastwest;fontSize=12;whiteSpace=wrap;html=1;" vertex="1" parent="iJVvecHlCoVzFm1U_8LE-2">
          <mxGeometry y="81" width="173" height="30" as="geometry" />
        </mxCell>
        <mxCell id="iJVvecHlCoVzFm1U_8LE-5" value="Order" style="swimlane;fontStyle=1;childLayout=stackLayout;horizontal=1;startSize=26;horizontalStack=0;resizeParent=1;resizeParentMax=0;resizeLast=0;collapsible=1;marginBottom=0;align=center;fontSize=14;" vertex="1" parent="1">
          <mxGeometry x="682" y="790" width="173" height="120" as="geometry" />
        </mxCell>
        <mxCell id="iJVvecHlCoVzFm1U_8LE-6" value="ID_Order: INTEGER&lt;div&gt;&lt;br&gt;&lt;/div&gt;" style="text;strokeColor=default;fillColor=none;spacingLeft=4;spacingRight=4;overflow=hidden;rotatable=0;points=[[0,0.5],[1,0.5]];portConstraint=eastwest;fontSize=12;whiteSpace=wrap;html=1;" vertex="1" parent="iJVvecHlCoVzFm1U_8LE-5">
          <mxGeometry y="26" width="173" height="34" as="geometry" />
        </mxCell>
        <mxCell id="iJVvecHlCoVzFm1U_8LE-7" value="Phone: VARCHAR(100)" style="text;strokeColor=none;fillColor=none;spacingLeft=4;spacingRight=4;overflow=hidden;rotatable=0;points=[[0,0.5],[1,0.5]];portConstraint=eastwest;fontSize=12;whiteSpace=wrap;html=1;" vertex="1" parent="iJVvecHlCoVzFm1U_8LE-5">
          <mxGeometry y="60" width="173" height="30" as="geometry" />
        </mxCell>
        <mxCell id="iJVvecHlCoVzFm1U_8LE-8" value="Address: VARCHAR(100)" style="text;strokeColor=none;fillColor=none;spacingLeft=4;spacingRight=4;overflow=hidden;rotatable=0;points=[[0,0.5],[1,0.5]];portConstraint=eastwest;fontSize=12;whiteSpace=wrap;html=1;" vertex="1" parent="iJVvecHlCoVzFm1U_8LE-5">
          <mxGeometry y="90" width="173" height="30" as="geometry" />
        </mxCell>
        <mxCell id="iJVvecHlCoVzFm1U_8LE-9" style="edgeStyle=orthogonalEdgeStyle;rounded=0;orthogonalLoop=1;jettySize=auto;html=1;endArrow=diamond;endFill=0;startArrow=oval;startFill=1;exitX=0;exitY=0.5;exitDx=0;exitDy=0;entryX=1;entryY=0.596;entryDx=0;entryDy=0;entryPerimeter=0;" edge="1" parent="1" source="iJVvecHlCoVzFm1U_8LE-3">
          <mxGeometry relative="1" as="geometry">
            <mxPoint x="366" y="862.5" as="sourcePoint" />
            <mxPoint x="290" y="881" as="targetPoint" />
          </mxGeometry>
        </mxCell>
        <mxCell id="iJVvecHlCoVzFm1U_8LE-10" value="P" style="text;html=1;align=center;verticalAlign=middle;resizable=0;points=[];autosize=1;strokeColor=none;fillColor=none;" vertex="1" parent="1">
          <mxGeometry x="561" y="831" width="26" height="26" as="geometry" />
        </mxCell>
        <mxCell id="iJVvecHlCoVzFm1U_8LE-11" value="P" style="text;html=1;align=center;verticalAlign=middle;resizable=0;points=[];autosize=1;strokeColor=none;fillColor=none;" vertex="1" parent="1">
          <mxGeometry x="347" y="829" width="26" height="26" as="geometry" />
        </mxCell>
      </root>
    </mxGraphModel>
  </diagram>
</mxfile>
